<svg width="100%" height="100%" viewBox="0 0 500 500" xmlns="http://www.w3.org/2000/svg">
 <metadata id="metadata7">image/svg+xml</metadata>

 <g>
  <title>background</title>
  <rect fill="none" id="canvas_background" height="402" width="582" y="-1" x="-1"/>
 </g>
 <g>
  <title>Layer 1</title>
  <g fill="#969696" transform="matrix(0.76666663,0,0,0.76666663,183.72336,210.70157) " id="g3892">
   <path fill="#969696" d="m267.15,92.085c10.21,-15.985 43.17,-37.055 43.17,-37.055l1.1258,-0.9699l-1.1258,-0.96412s-32.415,-20.436 -42.156,-36.186c-3.716,-6.0088 -5.49,-13.498 -5.167,-20.555c0.86691,-18.943 18.849,-53.673 18.849,-53.673l0.4965,-1.4058l-1.4577,-0.27134s-38.377,-1.4982 -54.727,-10.285c-6.1563,-3.3084 -11.385,-8.8425 -14.6,-15.048c-8.7467,-16.88 -10.539,-56.052 -10.539,-56.052l-0.26846,-1.4606l-1.3942,0.48784s-33.966,17.844 -52.507,18.445c-7.3552,0.23855 -15.053,-1.9982 -21.26,-5.9522c-16.477,-10.497 -38.175,-44.474 -38.175,-44.474l-0.9699,-1.1258l-0.96412,1.1258s-21.638,34.079 -38.181,44.477c-5.0801,3.1929 -11.396,4.8726 -17.392,4.6416c-19.515,-0.75177 -55.278,-19.418 -55.278,-19.418l-1.3971,-0.49072l-0.27423,1.4577s-1.6896,40.323 -10.825,57.588c-2.6373,4.9842 -6.9981,9.3096 -11.988,11.936c-16.824,8.8554 -56.055,10.536 -56.055,10.536l-1.4606,0.27422l0.49649,1.3971s17.839,33.911 18.414,52.423c0.21868,7.0413 -1.9598,14.4 -5.753,20.336c-10.222,15.998 -43.218,37.096 -43.218,37.096l-1.1229,0.96701l1.1229,0.96413s32.4,20.421 42.127,36.166c3.7301,6.0379 5.5008,13.564 5.1728,20.654c-0.87518,18.917 -18.832,53.601 -18.832,53.601l-0.49072,1.3971l1.4548,0.27422s38.272,1.4909 54.574,10.259c6.2397,3.3561 11.534,8.9725 14.791,15.264c8.7113,16.827 10.499,55.867 10.499,55.867l0.27712,1.4606l1.4,-0.49938s33.812,-17.784 52.27,-18.359c7.1269,-0.22189 14.575,1.9808 20.584,5.8194c15.954,10.192 36.995,43.094 36.995,43.094l0.9699,1.1287l0.96701,-1.1287s20.382,-32.329 36.091,-42.043c6.0797,-3.7597 13.657,-5.5552 20.798,-5.2276c18.889,0.86639 53.517,18.806 53.517,18.806l1.4116,0.49072l0.26268,-1.4606s1.4982,-38.247 10.256,-54.542c3.3576,-6.2472 8.9727,-11.554 15.27,-14.817c16.824,-8.7166 55.867,-10.496 55.867,-10.496l1.4577,-0.28289l-0.48784,-1.3971s-17.808,-33.857 -18.39,-52.34c-0.22333,-7.0805 1.9556,-14.483 5.7674,-20.454l0.00187,-0.00039z" id="path3894"/>
  </g>
  <g transform="matrix(0.69565217,0,0,0.69565217,76.088606,76.088603) " id="g4136">
   <g stroke="#ffa900" stroke-miterlimit="4" stroke-width="10" fill="#ffc800" id="g3">
    <path stroke="#ffa900" stroke-miterlimit="4" stroke-width="10" fill="#ffc800" d="m430.700995,290.82409c10.205,-15.985 43.172,-37.055 43.172,-37.055l1.1258,-0.9699l-1.1258,-0.96412s-32.415,-20.436 -42.156,-36.186c-3.716,-6.0088 -5.49,-13.498 -5.167,-20.555c0.86691,-18.943 18.849,-53.673 18.849,-53.673l0.4965,-1.4058l-1.4577,-0.27134s-38.377,-1.4982 -54.727,-10.285c-6.1563,-3.3084 -11.385,-8.8425 -14.6,-15.048c-8.7467,-16.88 -10.539,-56.052 -10.539,-56.052l-0.26846,-1.4606l-1.3942,0.48784s-33.966,17.844 -52.507,18.445c-7.3552,0.23855 -15.053,-1.9982 -21.26,-5.9522c-16.477,-10.497 -38.175,-44.474 -38.175,-44.474l-0.9699,-1.1258l-0.96412,1.1258s-21.638,34.079 -38.181,44.477c-5.0801,3.1929 -11.396,4.8726 -17.392,4.6416c-19.515,-0.75177 -55.278,-19.418 -55.278,-19.418l-1.3971,-0.49072l-0.27423,1.4577s-1.6896,40.323 -10.825,57.588c-2.6373,4.9842 -6.9981,9.3096 -11.988,11.936c-16.824,8.8554 -56.055,10.536 -56.055,10.536l-1.4606,0.27422l0.49649,1.3971s17.839,33.911 18.414,52.423c0.21868,7.0413 -1.9598,14.4 -5.753,20.336c-10.222,15.998 -43.218,37.096 -43.218,37.096l-1.1229,0.96701l1.1229,0.96413s32.4,20.421 42.127,36.166c3.7301,6.0379 5.5008,13.564 5.1728,20.654c-0.87518,18.917 -18.832,53.601 -18.832,53.601l-0.49072,1.3971l1.4548,0.27422s38.272,1.4909 54.574,10.259c6.2397,3.3561 11.534,8.9725 14.791,15.264c8.7113,16.827 10.499,55.867 10.499,55.867l0.27712,1.4606l1.4,-0.49938s33.812,-17.784 52.27,-18.359c7.1269,-0.22189 14.575,1.9808 20.584,5.8194c15.954,10.192 36.995,43.094 36.995,43.094l0.9699,1.1287l0.96701,-1.1287s20.382,-32.329 36.091,-42.043c6.0797,-3.7597 13.657,-5.5552 20.798,-5.2276c18.889,0.86639 53.517,18.806 53.517,18.806l1.4116,0.49072l0.26268,-1.4606s1.4982,-38.247 10.256,-54.542c3.3576,-6.2472 8.9727,-11.554 15.27,-14.817c16.824,-8.7166 55.867,-10.496 55.867,-10.496l1.4577,-0.28289l-0.48784,-1.3971s-17.808,-33.857 -18.39,-52.34c-0.22333,-7.0805 1.9556,-14.483 5.7674,-20.454l-0.00013,-0.00039z" id="path5"/>
   </g>
   <path stroke="#ff9b00" stroke-miterlimit="4" stroke-width="10" fill="#ff9d00" d="m270.19,115.04c-74.39,-11.71 -144.19,39.75 -155.39,114.64c-11.72,74.39 39.74,144.19 114.63,155.39c74.9,11.21 144.19,-39.74 155.9,-114.63c11.21,-74.39 -40.25,-144.19 -115.14,-155.4z" id="path4808"/>
  </g>
  <path stroke="null" opacity="0.8" fill="#cccccc" d="m189.626086,51.470022c-8.14913,0 -14.749471,10.252398 -14.749471,22.885456c0,12.633872 6.599607,22.885456 14.749471,22.885456l88.499972,0c8.142417,0 14.749471,-10.252398 14.749471,-22.885456c0,-12.633872 -6.607578,-22.885456 -14.749471,-22.885456l-88.499972,0zm-88.499972,68.659622c-8.14913,0 -14.749471,10.252398 -14.749471,22.885456c0,12.633872 6.600865,22.885456 14.749471,22.885456l176.999944,0c8.142417,0 14.749471,-10.252398 14.749471,-22.885456c0,-12.633872 -6.607578,-22.885456 -14.749471,-22.885456l-176.999944,0zm228.626239,0c-8.14913,0 -14.749471,10.252398 -14.749471,22.885456c0,12.633872 6.600865,22.885456 14.749471,22.885456l58.999981,0c8.142417,0 14.749471,-10.252398 14.749471,-22.885456c0,-12.633872 -6.607578,-22.885456 -14.749471,-22.885456l-58.999981,0zm-272.878848,68.659622c-8.14913,0 -14.749471,10.252398 -14.749471,22.885456c0,12.633872 6.600865,22.885456 14.749471,22.885456l176.999944,0c8.142417,0 14.749471,-10.252398 14.749471,-22.885456c0,-12.633872 -6.607578,-22.885456 -14.749471,-22.885456l-176.999944,0zm221.252553,0c-8.14913,0 -14.749471,10.252398 -14.749471,22.885456c0,12.633872 6.600865,22.885456 14.749471,22.885456l154.878885,0c8.142417,0 14.749471,-10.252398 14.749471,-22.885456c0,-12.633872 -6.607578,-22.885456 -14.749471,-22.885456l-154.878885,0zm-243.373612,68.646603c-8.14913,0 -14.749471,10.252398 -14.749471,22.885456c0,12.633872 6.600865,22.885456 14.749471,22.885456l442.505106,0c8.142417,0 14.749471,-10.252398 14.749471,-22.885456c0,-12.633872 -6.607578,-22.885456 -14.749471,-22.885456l-442.505106,0zm22.125255,68.659622c-8.14913,0 -14.749471,10.252398 -14.749471,22.885456c0,12.633872 6.600865,22.885456 14.749471,22.885456l420.373557,0c8.142417,0 14.749471,-10.252398 14.749471,-22.885456c0,-12.633872 -6.607578,-22.885456 -14.749471,-22.885456l-420.373557,0zm44.250511,68.659622c-8.14913,0 -14.749471,10.252398 -14.749471,22.885456c0,12.633872 6.600865,22.885456 14.749471,22.885456l88.499972,0c8.142417,0 14.749471,-10.252398 14.749471,-22.885456c0,-12.633872 -6.608942,-22.885456 -14.749471,-22.885456l-88.499972,0zm132.747336,0c-8.14913,0 -14.749471,10.252398 -14.749471,22.885456c0,12.633872 6.600865,22.885456 14.749471,22.885456l199.121004,0c8.142417,0 14.749471,-10.252398 14.749471,-22.885456c0,-12.633872 -6.608942,-22.885456 -14.749471,-22.885456l-199.121004,0z" id="path4915"/>
 </g>
</svg>